<?xml version="1.0" standalone="no"?>
<!DOCTYPE svg PUBLIC "-//W3C//DTD SVG 20010904//EN"
 "http://www.w3.org/TR/2001/REC-SVG-20010904/DTD/svg10.dtd">
<svg version="1.0" xmlns="http://www.w3.org/2000/svg"
 width="1280.000000pt" height="1280.000000pt" viewBox="0 0 1280.000000 1280.000000"
 preserveAspectRatio="xMidYMid meet">
<metadata>
Created by potrace 1.14, written by Peter Selinger 2001-2017
</metadata>
<g transform="translate(0.000000,1280.000000) scale(0.100000,-0.100000)"
fill="#000000" stroke="none">
<path d="M2647 11003 c-4 -4 -22 -8 -40 -9 -68 -5 -163 -15 -188 -19 -14 -3
-42 -6 -62 -7 -20 -2 -37 -6 -37 -9 0 -3 -11 -5 -25 -4 -14 2 -25 -1 -25 -6 0
-6 -4 -8 -8 -5 -10 6 -116 -17 -227 -49 -49 -15 -97 -28 -105 -30 -8 -2 -16
-4 -17 -5 -2 -2 -6 -3 -10 -5 -5 -1 -17 -5 -28 -9 -11 -5 -56 -22 -100 -38
-102 -38 -288 -128 -385 -186 -106 -64 -184 -115 -188 -124 -2 -5 -8 -8 -13
-8 -8 0 -111 -76 -156 -115 -6 -5 -30 -26 -53 -45 -122 -102 -307 -300 -427
-456 -34 -43 -123 -175 -123 -181 0 -3 -8 -17 -19 -31 -44 -63 -181 -331 -181
-356 0 -9 -4 -16 -10 -16 -5 0 -10 -7 -10 -16 0 -8 -5 -25 -12 -37 -7 -12 -13
-26 -14 -32 -1 -5 -18 -59 -38 -120 -46 -136 -54 -163 -59 -195 -3 -14 -10
-43 -15 -65 -6 -22 -13 -56 -16 -75 -3 -19 -8 -46 -11 -60 -7 -32 -14 -78 -17
-118 -1 -18 -5 -32 -8 -32 -13 0 -18 -438 -7 -570 7 -77 24 -210 33 -252 2
-13 7 -36 9 -53 3 -16 9 -44 14 -62 5 -17 7 -34 3 -37 -3 -3 0 -6 7 -6 7 0 10
-4 7 -9 -3 -4 4 -39 15 -77 11 -38 21 -73 23 -79 18 -68 30 -102 38 -112 6 -7
7 -13 3 -13 -4 0 -1 -7 6 -17 8 -9 13 -17 11 -17 -16 -5 177 -416 200 -424 4
-2 8 -9 8 -16 0 -19 183 -290 220 -326 3 -3 25 -30 50 -60 45 -55 243 -262
334 -348 27 -26 54 -52 60 -59 33 -34 278 -280 429 -431 95 -95 171 -174 169
-176 -2 -2 5 -7 16 -10 10 -4 25 -17 32 -31 7 -14 21 -27 32 -31 10 -3 18 -12
18 -20 0 -8 4 -14 8 -14 9 0 258 -247 272 -270 6 -8 10 -13 10 -10 0 5 414
-405 428 -425 4 -5 75 -76 158 -157 83 -82 148 -148 145 -148 -3 0 1 -5 9 -10
27 -17 157 -150 152 -155 -3 -3 -1 -5 4 -5 6 0 118 -108 249 -240 203 -204
374 -373 431 -428 8 -7 14 -18 14 -24 0 -6 2 -9 5 -7 5 6 308 -295 313 -311 2
-5 10 -10 17 -10 7 0 15 -4 17 -10 5 -15 365 -377 459 -461 46 -41 113 -97
149 -125 36 -27 71 -55 78 -61 7 -7 17 -13 22 -13 5 0 15 -6 22 -13 19 -19
105 -77 114 -77 4 0 15 -6 23 -14 17 -14 106 -65 181 -102 139 -69 170 -83
170 -78 0 4 7 1 16 -7 9 -7 39 -21 67 -31 107 -39 256 -87 281 -93 14 -3 38
-7 53 -10 14 -3 34 -10 45 -16 10 -5 18 -8 18 -5 0 2 17 0 38 -5 20 -4 51 -10
67 -13 17 -3 41 -8 54 -11 13 -2 49 -7 80 -10 31 -4 70 -10 86 -14 17 -5 39
-5 50 -1 11 4 25 3 31 -2 12 -9 468 -5 514 5 14 3 44 8 68 11 23 3 61 9 85 12
23 3 53 8 67 11 14 2 32 6 40 7 9 1 21 6 28 10 7 4 16 6 19 3 3 -3 17 -1 32 5
14 5 38 11 52 13 35 5 173 49 299 97 114 42 393 175 398 189 2 5 8 9 14 9 5 0
33 16 62 35 29 19 56 35 61 35 4 0 20 10 35 22 15 13 40 32 56 43 29 20 79 58
160 120 25 19 42 35 37 35 -4 0 4 8 19 18 37 24 144 128 261 253 113 122 3296
3306 3318 3320 8 5 12 9 9 9 -3 0 41 48 97 106 57 59 103 109 103 111 0 2 6
10 13 17 35 36 134 165 173 228 15 24 30 45 34 48 3 3 10 12 13 20 4 8 18 33
32 55 14 22 28 47 32 55 4 8 9 17 13 20 4 3 22 37 41 75 19 39 39 73 44 77 6
4 7 8 2 8 -4 0 8 30 26 68 19 37 44 96 57 132 13 36 28 71 33 78 5 7 7 15 4
19 -4 3 -1 15 5 27 7 11 13 26 15 31 1 6 14 51 28 100 25 88 30 107 40 163 3
15 8 34 10 42 6 21 16 79 20 120 2 19 4 35 5 35 1 0 3 17 6 37 2 20 6 54 10
75 8 49 8 503 0 568 -10 86 -15 119 -20 150 -8 42 -17 95 -23 130 -3 17 -14
64 -25 105 -11 41 -21 82 -23 90 -6 32 -79 246 -92 270 -7 14 -13 28 -13 33 0
4 -11 30 -25 59 -14 28 -25 55 -25 59 0 5 -13 30 -29 58 -16 27 -27 52 -24 55
4 3 1 6 -6 6 -7 0 -10 4 -7 9 3 5 -1 14 -9 21 -8 7 -15 17 -15 22 0 5 -16 33
-35 63 -19 30 -31 55 -27 55 4 0 2 4 -3 8 -6 4 -28 34 -50 67 -21 33 -45 66
-51 75 -7 8 -36 47 -65 85 -60 79 -93 119 -126 151 -13 12 -23 24 -23 26 0 6
-129 138 -135 138 -2 0 -23 19 -48 43 -66 64 -126 117 -132 117 -4 0 -33 22
-59 45 -6 6 -33 26 -61 45 -27 19 -52 38 -55 41 -3 3 -9 8 -15 10 -5 2 -40 24
-77 47 -37 24 -69 42 -71 40 -2 -2 -11 5 -21 15 -10 9 -23 17 -31 17 -7 0 -15
4 -17 8 -3 8 -119 66 -228 115 -181 81 -446 161 -600 182 -14 2 -25 4 -25 5 0
2 -9 4 -20 5 -30 5 -105 15 -152 21 -23 3 -68 7 -101 8 -32 1 -63 5 -68 7 -13
6 -252 2 -349 -5 -82 -7 -104 -9 -190 -21 -27 -4 -60 -7 -72 -8 -13 -1 -23 -3
-23 -6 0 -4 -10 -6 -22 -7 -47 -1 -222 -44 -333 -82 -44 -14 -82 -27 -85 -27
-3 0 -10 -3 -16 -7 -6 -4 -22 -9 -36 -12 -15 -2 -37 -10 -50 -17 -12 -7 -25
-14 -28 -15 -35 -8 -280 -129 -356 -175 -79 -48 -234 -150 -254 -167 -8 -7
-47 -39 -85 -70 -39 -31 -86 -70 -105 -87 -19 -16 -386 -381 -816 -810 -430
-429 -793 -790 -806 -803 l-25 -23 -809 808 c-445 445 -833 829 -863 853 -29
25 -59 50 -65 55 -6 6 -38 31 -71 55 -33 25 -66 51 -73 58 -7 6 -17 12 -21 12
-4 0 -21 11 -37 25 -16 14 -35 25 -41 25 -7 0 -13 5 -13 10 0 6 -7 10 -15 10
-8 0 -15 5 -15 10 0 6 -6 10 -14 10 -8 0 -16 3 -18 8 -10 23 -434 227 -490
236 -7 1 -17 4 -23 8 -9 5 -166 54 -205 63 -8 2 -17 4 -20 5 -3 1 -9 2 -14 1
-4 -1 -14 3 -21 9 -7 6 -17 10 -21 9 -5 -2 -34 3 -64 9 -30 6 -66 14 -80 16
-14 3 -36 7 -49 10 -34 8 -129 18 -173 20 -21 0 -38 3 -38 6 0 3 -42 6 -93 8
-50 1 -103 3 -117 5 -14 1 -35 -1 -47 -5 -12 -4 -25 -3 -27 1 -3 5 -23 5 -45
1 -22 -4 -44 -3 -49 2 -4 4 -12 5 -15 1z"/>
</g>
</svg>
