<svg width="266" height="265" fill="none" xmlns="http://www.w3.org/2000/svg"><path d="M133 108.566v48.433m11-38.718-11-11.282-11 11.282h22Z" stroke="#242F65" stroke-width="1.5" stroke-linecap="round" stroke-linejoin="round"/><path d="m164.644 12.71-.549 2.726-4.734-.964-2.94 14.399-3.442-.71 2.94-14.399-4.703-.963.549-2.727 12.879 2.637ZM188.324 21.435l-6.791 16.114-3.253-1.35 2.95-6.997-6.899-2.907-2.98 6.964-3.222-1.348 6.791-16.114 3.222 1.348-2.738 6.513 6.898 2.907 2.739-6.513 3.283 1.383ZM199.783 44.932l-5.752-4.023-3.035 2.16-3.026-2.111 15.251-10.43 3.266 2.28-4.706 17.804-3.026-2.112 1.028-3.568Zm.767-2.716 2.138-7.504-6.363 4.554 4.225 2.95ZM217.227 66.332l-2.381-2.574 3.436-13.784-8.754 8.05-2.38-2.573 12.87-11.826 2.38 2.573-3.502 13.874 8.821-8.109 2.379 2.573-12.869 11.796ZM233.417 74.503l-3.843 10.913-2.169-3.646 3.558-9.628-6.899 4.092-1.797-3.007 15.047-8.922 1.798 3.006-6.769 4.007 10.078 1.558 2.169 3.615-11.173-1.988ZM238.542 101.996c-.861-.169-1.646-.583-2.388-1.242-.743-.659-1.315-1.587-1.717-2.785-.435-1.17-.594-2.262-.536-3.343a5.422 5.422 0 0 1 .925-2.8c.54-.807 1.32-1.447 2.276-1.891l1.274 3.505a2.772 2.772 0 0 0-1.38 1.413c-.283.636-.288 1.316-.017 2.074.242.694.623 1.148 1.107 1.39.484.243 1.043.242 1.612.056.508-.19.896-.479 1.105-.901.24-.421.356-.88.416-1.403.027-.525.065-1.235.018-2.105-.032-1.147.019-2.105.122-2.873a5.005 5.005 0 0 1 .862-2.184c.471-.687 1.213-1.205 2.259-1.583 1.426-.513 2.724-.382 3.898.331 1.174.713 2.072 1.938 2.697 3.613.623 1.736.697 3.257.253 4.596-.443 1.34-1.366 2.312-2.736 2.951l-1.272-3.536c.545-.311.971-.722 1.186-1.268.247-.545.217-1.165-.026-1.86-.216-.6-.565-1.052-1.018-1.293-.452-.272-.98-.269-1.582-.053-.475.16-.832.451-1.041.874a3.3 3.3 0 0 0-.384 1.373c-.027.525-.063 1.204-.015 2.043 0 1.177-.022 2.166-.126 2.966a4.455 4.455 0 0 1-.864 2.215c-.471.687-1.246 1.234-2.323 1.61-.881.201-1.723.28-2.585.11ZM258.415 132.074l-2.775.162-.417-7.331-4.677.278.341 5.871-2.68.166-.342-5.871-7.356.445-.219-3.481 17.486-1.019.639 10.78ZM255.409 155.883a8.19 8.19 0 0 1-3.648 2.593c-1.49.54-3.051.674-4.747.429-1.695-.277-3.153-.881-4.408-1.845-1.253-.965-2.12-2.189-2.666-3.611-.545-1.423-.683-2.948-.44-4.577.271-1.595.874-3.019 1.839-4.206.964-1.187 2.191-2.051 3.65-2.593 1.488-.54 3.049-.674 4.775-.396 1.693.277 3.153.881 4.406 1.846 1.224.963 2.123 2.156 2.667 3.61.546 1.422.682 2.947.441 4.576-.243 1.628-.936 2.986-1.869 4.174Zm-1.654-7.459c-.33-.822-.914-1.535-1.691-2.103-.777-.568-1.753-.929-2.892-1.113-1.141-.185-2.17-.116-3.117.174-.916.292-1.688.777-2.254 1.49-.564.683-.953 1.56-1.099 2.543-.145.984-.07 1.916.257 2.77.327.853.912 1.535 1.691 2.103.777.568 1.753.93 2.892 1.115 1.139.184 2.17.115 3.117-.176.916-.291 1.689-.808 2.254-1.49.564-.682.954-1.56 1.099-2.542.178-1.013.102-1.946-.257-2.771ZM233.015 173.829l7.815-1.472.542-1.427-6.399-2.354 1.199-3.28 16.427 6.047-2.322 6.256c-.722 1.912-1.723 3.19-2.999 3.835-1.308.643-2.71.692-4.234.145-1.25-.469-2.143-1.198-2.742-2.19-.601-.991-.784-2.208-.587-3.592l-8.074 1.676 1.374-3.644Zm10.612-2.067-.982 2.705c-.69 1.882-.197 3.116 1.448 3.731.793.289 1.507.297 2.114-.012.606-.308 1.106-.931 1.435-1.874l.984-2.704-4.999-1.846ZM217.378 204.368c-.328-.822-.406-1.694-.23-2.674.177-.982.632-1.949 1.4-2.961.736-.983 1.585-1.743 2.512-2.251.928-.508 1.874-.768 2.869-.777.993.022 1.91.32 2.813.863l-2.238 2.946c-.633-.374-1.248-.499-1.937-.382-.659.121-1.239.492-1.738 1.116-.434.565-.62 1.143-.555 1.673.065.53.35 1.011.859 1.378.418.331.876.479 1.374.444a3.311 3.311 0 0 0 1.39-.42 33.057 33.057 0 0 0 1.799-1.112 17.086 17.086 0 0 1 2.471-1.48c.702-.334 1.486-.478 2.324-.464.838.013 1.689.369 2.556 1.034 1.195.9 1.817 2.048 1.867 3.444.05 1.396-.49 2.793-1.558 4.191-1.103 1.458-2.364 2.382-3.749 2.712-1.384.329-2.709.103-3.973-.677l2.274-3.007c.573.309 1.127.401 1.723.309.595-.092 1.11-.436 1.546-1.033.4-.505.583-1.022.549-1.549-.035-.529-.29-.976-.829-1.376-.418-.301-.846-.448-1.283-.409-.467.036-.91.167-1.359.423-.447.255-1.025.595-1.735 1.084a28.011 28.011 0 0 1-2.535 1.507 5.173 5.173 0 0 1-2.325.494c-.838-.013-1.721-.37-2.617-1.036-.813-.508-1.336-1.186-1.665-2.01ZM210.322 230.161c-1.808.09-3.55-.438-5.169-1.577l2.769-2.391c.909.45 1.862.626 2.801.521.968-.103 1.862-.551 2.708-1.281.685-.613 1.189-1.33 1.419-2.154a5.066 5.066 0 0 0 .016-2.632c-.262-.912-.774-1.805-1.535-2.682-.763-.846-1.568-1.477-2.449-1.866-.881-.387-1.745-.495-2.622-.356-.877.139-1.643.502-2.358 1.114-.847.728-1.388 1.566-1.626 2.514-.236.947-.193 1.879.129 2.856l-2.771 2.422c-.932-1.752-1.21-3.532-.868-5.31.344-1.778 1.332-3.398 2.991-4.827 1.272-1.108 2.612-1.781 4.086-2.042 1.474-.263 2.896-.125 4.329.415 1.43.572 2.717 1.477 3.829 2.775 1.143 1.299 1.908 2.703 2.264 4.178.357 1.474.31 2.928-.167 4.327-.479 1.399-1.322 2.654-2.594 3.763-1.626 1.369-3.376 2.144-5.182 2.233ZM182.921 228.887l6.906 3.961 1.345-.765-3.351-5.94 3.042-1.695 8.575 15.229-5.829 3.251c-1.761.99-3.363 1.307-4.775.985-1.412-.324-2.513-1.219-3.309-2.623-.654-1.15-.872-2.308-.656-3.442.215-1.134.83-2.185 1.906-3.119l-7.248-3.948 3.394-1.894Zm9.444 5.304-2.499 1.415c-1.729.961-2.201 2.236-1.319 3.769.427.736.962 1.198 1.607 1.356.643.158 1.427.013 2.325-.496l2.53-1.413-2.644-4.631ZM165.396 253.441c-1.505-.328-2.803-1.047-3.959-2.1-1.156-1.052-1.952-2.427-2.456-4.063-.503-1.637-.605-3.223-.275-4.754a8.22 8.22 0 0 1 2.076-3.977c1.054-1.121 2.369-1.918 3.917-2.393 1.58-.473 3.105-.547 4.611-.218 1.505.327 2.802 1.047 3.957 2.13 1.154 1.084 1.953 2.427 2.486 4.097.532 1.67.605 3.222.275 4.752a8.21 8.21 0 0 1-2.076 3.978c-1.053 1.121-2.339 1.92-3.917 2.392-1.609.442-3.135.515-4.639.156Zm6.031-4.727c.596-.68.981-1.496 1.155-2.446.175-.951.075-1.978-.271-3.081-.345-1.102-.856-1.997-1.534-2.714-.677-.687-1.46-1.161-2.32-1.362-.89-.203-1.793-.158-2.771.131-.979.288-1.782.773-2.378 1.452-.595.681-.981 1.497-1.154 2.447-.176.951-.074 1.979.271 3.08.345 1.103.856 1.998 1.534 2.715.677.686 1.459 1.162 2.351 1.364.89.202 1.793.158 2.802-.13.919-.322 1.69-.808 2.315-1.456ZM145.192 243.075l-5.843.586-.262-2.646 9.341-.957 1.81 17.377-3.468.372-1.578-14.732ZM127.733 243.568l-5.887-.313.141-2.656 9.356.53-.958 17.445-3.501-.185.849-14.821ZM107.657 255.908l3.304-17.136 3.445.649-3.305 17.166-3.444-.679ZM88.468 231.69l3.29 1.229 3.21 13.86 4.135-11.146 3.29 1.229-6.09 16.367-3.292-1.197-3.173-13.95-4.171 11.236-3.29-1.229 6.091-16.399ZM60.752 234.023c-.596-1.642-.57-3.312.08-5.013l3.064 1.99c-.14.86-.027 1.672.333 2.496.362.794.978 1.477 1.849 2.05.841.54 1.726.835 2.625.883.898.048 1.78-.184 2.614-.666.834-.482 1.557-1.218 2.198-2.175 1.013-1.525 1.37-2.993 1.104-4.4-.267-1.408-1.107-2.568-2.55-3.481-1.051-.676-2.155-.951-3.312-.826-1.156.123-2.211.687-3.162 1.627l4.955 3.238-1.386 2.094-7.418-4.825 1.858-2.811a8.62 8.62 0 0 1 2.96-1.888c1.14-.433 2.36-.554 3.657-.423 1.298.131 2.577.633 3.839 1.443 1.44.943 2.499 2.084 3.205 3.422.705 1.338.97 2.777.828 4.287-.142 1.51-.687 2.999-1.634 4.434-.948 1.467-2.093 2.552-3.437 3.286a7.86 7.86 0 0 1-4.278.98c-1.518-.081-2.982-.593-4.424-1.536-1.772-1.147-2.972-2.544-3.568-4.186ZM44.942 223.395l8.85-8.665 2.16 2.036-8.2 9.287-2.81-2.658Zm10.069-10.551 2.502-2.654 2.721 2.592-2.5 2.623-2.723-2.561ZM29.941 202.218c.03-1.733.642-3.311 1.833-4.671l2.173 2.964c-.444.751-.612 1.579-.565 2.448.078.871.405 1.725 1.013 2.563.61.806 1.324 1.401 2.144 1.755a4.59 4.59 0 0 0 2.657.296c.94-.166 1.895-.58 2.833-1.273 1.487-1.098 2.33-2.323 2.59-3.734.231-1.412-.132-2.763-1.146-4.149-.755-1-1.682-1.669-2.817-1.946-1.135-.278-2.322-.154-3.534.432l3.506 4.77-2.036 1.47-5.245-7.124 2.716-1.991a8.463 8.463 0 0 1 3.456-.714c1.211.002 2.407.314 3.556.901 1.15.588 2.188 1.511 3.088 2.705 1.014 1.386 1.621 2.811 1.789 4.337a7.803 7.803 0 0 1-.727 4.328c-.665 1.389-1.69 2.574-3.08 3.583-1.39 1.011-2.853 1.645-4.388 1.873-1.502.199-2.953.029-4.35-.573-1.398-.601-2.588-1.594-3.602-2.978-1.24-1.801-1.864-3.506-1.864-5.272ZM22.525 186.245l4.11-1.917-2.622-5.621 2.422-1.141 2.622 5.621 4.269-1.972-2.929-6.287 2.548-1.165 4.408 9.432-15.896 7.36-4.407-9.463 2.517-1.167 2.958 6.32ZM10.26 159.206l2.679-.724 1.244 4.65 14.245-3.764.909 3.364-14.245 3.761 1.244 4.651-2.68.724-3.397-12.662ZM7.783 132.72l17.53-.088.03 3.501-17.529.088-.031-3.501ZM27.856 109.324l-.555 3.438-12.988 5.843 11.768 1.897-.555 3.439L8.21 121.16l.556-3.439 13.08-5.838-11.861-1.901.555-3.439 17.315 2.781ZM23.767 72.253l2.484 1.216-2.156 4.314 13.2 6.525-1.564 3.138L22.53 80.92l-2.154 4.283-2.483-1.216 5.874-11.734ZM37.998 53.563c1.428-.574 2.898-.744 4.47-.505 1.541.237 2.997.903 4.339 1.965 1.342 1.063 2.331 2.323 2.937 3.78.606 1.457.777 2.922.571 4.459-.235 1.505-.838 2.897-1.87 4.205-1 1.279-2.23 2.204-3.659 2.778-1.429.575-2.898.744-4.47.505-1.541-.237-2.997-.903-4.37-1.967-1.342-1.062-2.331-2.323-2.908-3.747a8.353 8.353 0 0 1-.573-4.428 8.763 8.763 0 0 1 1.87-4.205c1.035-1.339 2.265-2.264 3.663-2.84Zm-2.222 7.314c-.11.892.028 1.798.449 2.656.419.89 1.061 1.667 1.986 2.398.925.7 1.832 1.181 2.786 1.356.952.206 1.857.13 2.714-.196.856-.326 1.569-.876 2.202-1.679.633-.802 1.02-1.649 1.13-2.541.109-.892-.031-1.767-.45-2.656-.419-.89-1.061-1.667-1.985-2.398-.925-.73-1.833-1.181-2.787-1.356a4.695 4.695 0 0 0-2.714.196c-.856.326-1.6.875-2.233 1.677-.602.804-.989 1.65-1.098 2.543ZM51.035 39.206l6.507 7.934c.875 1.07 1.744 1.673 2.669 1.815.894.14 1.81-.151 2.686-.848.876-.696 1.323-1.509 1.372-2.435.017-.897-.395-1.91-1.241-2.946l-6.508-7.934 2.695-2.18 6.507 7.934c1.021 1.263 1.67 2.505 1.883 3.755.244 1.252.12 2.422-.373 3.51-.493 1.09-1.26 2.07-2.299 2.913-1.625 1.338-3.332 1.898-5.094 1.71-1.76-.186-3.416-1.203-4.962-3.082l-6.508-7.934 2.666-2.212ZM81.913 21.217c1.784.343 3.35 1.293 4.637 2.786l-3.288 1.652a5.024 5.024 0 0 0-2.61-1.192c-.956-.113-1.93.083-2.951.586a4.786 4.786 0 0 0-1.927 1.756c-.443.75-.644 1.607-.632 2.537.011.96.302 1.936.836 2.986.505 1.018 1.146 1.826 1.923 2.394a4.69 4.69 0 0 0 2.466.968c.866.077 1.714-.095 2.544-.515.99-.505 1.74-1.177 2.19-2.02.479-.842.652-1.762.551-2.789l3.289-1.652c.456 1.944.33 3.734-.472 5.364-.772 1.662-2.147 2.982-4.094 3.962-1.501.756-2.979 1.08-4.466 1.001-1.487-.08-2.859-.586-4.086-1.456-1.257-.904-2.25-2.102-3.039-3.63-.787-1.56-1.173-3.067-1.153-4.615.019-1.516.404-2.92 1.215-4.147.782-1.259 1.953-2.25 3.453-3.006 1.95-1.01 3.8-1.346 5.614-.97ZM108.87 10.946l4.383 16.926-3.402.872-1.909-7.349-7.277 1.873 1.908 7.349-3.4.84-4.383-16.925 3.402-.872 1.78 6.846 7.245-1.844-1.78-6.846 3.433-.87Z" fill="#242F65"/><path d="m130.997 6.21 2.434 5.642 6.027 1.188-4.626 4.028.701 6.107-5.272-3.13-5.573 2.552 1.344-5.998-4.173-4.496 6.119-.541 3.019-5.352Z" fill="#F3764F"/></svg>