<svg width="241" height="243" fill="none" xmlns="http://www.w3.org/2000/svg"><path d="M150.766 24.815c-.566.583-1.297.96-2.196 1.185-.898.197-1.901.16-3.01-.111-1.11-.27-2.069-.738-2.822-1.34-.752-.604-1.329-1.315-1.671-2.162-.342-.846-.423-1.74-.272-2.713l3.327.841c-.081.659.04 1.267.364 1.797.325.53.857.894 1.597 1.065.654.168 1.201.13 1.642-.14.44-.272.713-.664.849-1.206.131-.484.09-.917-.124-1.328a3.04 3.04 0 0 0-.881-1.038c-.39-.302-.922-.667-1.623-1.124-.897-.58-1.625-1.096-2.152-1.575a4.718 4.718 0 0 1-1.225-1.8c-.289-.73-.288-1.563-.049-2.561.336-1.34 1.089-2.29 2.257-2.822 1.168-.532 2.548-.596 4.169-.191 1.649.434 2.885 1.17 3.651 2.205.793 1.064 1.065 2.253.87 3.627l-3.383-.872c.051-.603-.074-1.125-.373-1.567-.298-.471-.775-.777-1.43-.944-.568-.136-1.086-.127-1.524.087-.439.214-.711.607-.876 1.176-.075.486-.034.919.153 1.3.187.38.49.708.853 1.009.362.3.893.666 1.567 1.093.924.61 1.651 1.154 2.208 1.634.555.48.965 1.071 1.252 1.83.289.73.285 1.62.047 2.618-.23.769-.599 1.445-1.195 2.027ZM174.558 21.118c.746 1.523.945 3.17.534 4.966l-3.075-1.465a4.408 4.408 0 0 0-.594-2.581c-.46-.765-1.155-1.395-2.085-1.831a4.289 4.289 0 0 0-2.367-.433c-.807.086-1.565.403-2.246.953-.68.55-1.253 1.306-1.721 2.295-.466.96-.672 1.873-.676 2.765-.004.891.226 1.676.659 2.354a4.432 4.432 0 0 0 1.808 1.59c.931.437 1.843.615 2.738.475a4.383 4.383 0 0 0 2.367-1.15l3.075 1.465c-1.143 1.425-2.554 2.322-4.204 2.693-1.65.37-3.392.105-5.196-.766-1.382-.655-2.467-1.587-3.23-2.708a7.155 7.155 0 0 1-1.208-3.84c-.033-1.411.278-2.837.962-4.28.685-1.44 1.617-2.585 2.741-3.464 1.122-.85 2.374-1.351 3.728-1.445 1.353-.123 2.749.159 4.16.843 1.805.843 3.082 2.04 3.83 3.564ZM182.772 44.313l.787-7.334-1.146-.847-3.802 5.037-2.568-1.964 9.778-12.927 4.915 3.718c1.507 1.148 2.353 2.359 2.59 3.69.239 1.332-.095 2.585-1.001 3.789-.725.98-1.637 1.579-2.679 1.828-1.043.25-2.157.093-3.342-.468l-.682 7.596-2.85-2.118Zm.998-9.943 2.123 1.602c1.48 1.119 2.719 1.02 3.685-.295.482-.615.649-1.242.558-1.878-.091-.636-.529-1.227-1.283-1.802l-2.122-1.602-2.961 3.975ZM209.516 49.267c.293 1.39.185 2.767-.296 4.13-.482 1.363-1.301 2.57-2.517 3.618-1.187 1.049-2.504 1.72-3.922 2.041a7.849 7.849 0 0 1-4.153-.24c-1.333-.451-2.509-1.27-3.5-2.4-.991-1.13-1.634-2.39-1.927-3.781-.293-1.391-.185-2.768.297-4.16.481-1.362 1.33-2.596 2.517-3.645 1.187-1.05 2.504-1.72 3.921-2.013 1.418-.293 2.792-.214 4.124.238 1.334.452 2.509 1.271 3.5 2.4 1.02 1.16 1.662 2.42 1.956 3.812Zm-6.309-3.281a4.349 4.349 0 0 0-2.496-.063c-.87.227-1.719.684-2.52 1.402-.801.719-1.375 1.474-1.723 2.324a4.168 4.168 0 0 0-.263 2.492c.142.811.544 1.602 1.178 2.316.633.713 1.333 1.2 2.127 1.459.794.26 1.626.261 2.495.034.871-.227 1.72-.684 2.522-1.403.801-.718 1.375-1.473 1.721-2.323.348-.85.435-1.652.265-2.493-.142-.81-.544-1.602-1.177-2.315-.607-.684-1.306-1.17-2.129-1.43ZM207.99 69.601l2.784 4.676-2.143 1.273-4.403-7.468 13.941-8.287 1.648 2.793L207.99 69.6ZM214.835 83.227l2.053 5.05-2.302.922-3.262-8.057 15.009-6.12 1.21 3.007-12.708 5.198ZM224.004 117.127c-1.301-.536-2.33-1.408-3.148-2.589-.817-1.209-1.309-2.665-1.502-4.427l-.62-5.746 16.084-1.795.621 5.718c.194 1.761.022 3.308-.487 4.641a6.887 6.887 0 0 1-2.472 3.216c-1.12.793-2.516 1.288-4.131 1.459-1.617.257-3.045.06-4.345-.477Zm-.007-3.71c1.032.843 2.34 1.179 3.982 1.009 1.671-.168 2.901-.813 3.685-1.848.814-1.063 1.124-2.432.931-4.194l-.263-2.224-10.405 1.141.233 2.223c.224 1.734.808 3.021 1.837 3.893ZM234.327 138.415c-.845 1.149-1.912 2.03-3.253 2.584-1.342.583-2.784.79-4.357.617-1.573-.173-2.96-.684-4.135-1.533a7.962 7.962 0 0 1-2.637-3.203c-.555-1.286-.762-2.703-.62-4.222.171-1.519.651-2.852 1.498-4.001a7.428 7.428 0 0 1 3.252-2.583c1.343-.583 2.786-.789 4.387-.615 1.572.173 2.96.684 4.135 1.504a7.958 7.958 0 0 1 2.638 3.203c.556 1.286.761 2.703.619 4.222-.201 1.545-.681 2.88-1.527 4.027Zm-1.841-6.855c-.346-.76-.897-1.384-1.654-1.873-.758-.487-1.665-.78-2.722-.905-1.058-.125-2.009-.016-2.853.298-.844.313-1.523.806-2.007 1.479-.513.672-.801 1.466-.892 2.412-.093.946.02 1.784.363 2.573.345.76.896 1.385 1.654 1.873.757.487 1.664.78 2.722.905s2.009.016 2.853-.298c.844-.314 1.523-.806 2.006-1.478.513-.672.801-1.466.893-2.412.094-.975-.019-1.813-.363-2.574ZM225.314 172.625l-13.837-9.31 1.372-3.746 12.071 1.193-9.965-6.925 1.372-3.716 16.581 1.846-1.212 3.292-12.644-1.99 10.666 7.353-1.213 3.32-12.899-1.28 10.92 6.671-1.212 3.292ZM199.154 183.741l1.821-2.694 13.171.168-9.102-6.173 1.822-2.693 13.414 9.093-1.821 2.693-13.254-.229 9.185 6.234-1.822 2.694-13.414-9.093ZM189.603 215.399l-1.621-1.986 3.436-2.865-8.683-10.529 2.488-2.065 8.682 10.528 3.435-2.835 1.649 1.988-9.386 7.764ZM171.461 225.459c-1.405-.022-2.738-.446-3.973-1.21-1.235-.765-2.228-1.866-2.98-3.273-.751-1.408-1.13-2.832-1.104-4.298a7.765 7.765 0 0 1 1.152-3.984c.762-1.208 1.803-2.177 3.121-2.904a8.126 8.126 0 0 1 4.114-1.028c1.406.022 2.739.446 3.974 1.21 1.235.793 2.228 1.865 2.98 3.273.751 1.408 1.13 2.832 1.077 4.267a7.828 7.828 0 0 1-1.152 3.984c-.762 1.209-1.803 2.178-3.121 2.906-1.292.757-2.682 1.109-4.088 1.057Zm4.593-5.41c.428-.733.63-1.53.606-2.423-.025-.892-.306-1.823-.788-2.761-.511-.94-1.143-1.682-1.871-2.197-.728-.516-1.521-.804-2.352-.835-.831-.029-1.672.17-2.492.628-.849.458-1.473 1.039-1.902 1.77a4.421 4.421 0 0 0-.606 2.423c.024.893.306 1.823.816 2.762.511.939 1.144 1.682 1.871 2.198a4.553 4.553 0 0 0 2.352.833c.831.031 1.671-.168 2.492-.627.82-.459 1.445-1.04 1.874-1.771ZM135.493 223.129c.258-.767.742-1.439 1.48-2.017.712-.577 1.645-.974 2.773-1.221 1.127-.217 2.161-.237 3.13-.028.969.209 1.786.612 2.453 1.211.667.6 1.154 1.396 1.435 2.326l-3.383.68c-.207-.64-.562-1.113-1.095-1.449-.533-.336-1.161-.446-1.885-.271-.665.119-1.135.419-1.408.84a1.839 1.839 0 0 0-.255 1.458c.096.492.312.873.675 1.146.335.271.758.459 1.242.563a18.65 18.65 0 0 0 1.941.302c1.058.125 1.941.301 2.623.499.709.198 1.328.567 1.884 1.075.554.539.956 1.302 1.149 2.286.266 1.362-.007 2.531-.819 3.537-.811.977-2.042 1.65-3.662 1.964-1.677.342-3.107.202-4.26-.416-1.156-.618-1.952-1.567-2.333-2.904l3.412-.679c.209.553.537.968 1.015 1.274.477.276 1.049.354 1.713.235.579-.122 1.018-.365 1.32-.757.302-.391.378-.877.255-1.456a1.824 1.824 0 0 0-.649-1.089 3.142 3.142 0 0 0-1.215-.533 16.985 16.985 0 0 0-1.884-.3 27.873 27.873 0 0 1-2.679-.501 4.537 4.537 0 0 1-1.913-1.078c-.583-.538-.984-1.33-1.176-2.343-.2-.813-.171-1.589.116-2.354ZM124.989 235.512l-.103-4.203-5.748.162-.052-2.475 5.719-.163-.126-4.377-6.436.166-.077-2.591 9.655-.277.436 16.207-9.656.277-.078-2.562 6.466-.164ZM106.502 234.715l.585-4.177-5.684-.784.35-2.46 5.683.783.59-4.32-6.369-.867.353-2.576 9.569 1.302-2.201 16.082-9.569-1.302.352-2.546 6.341.865ZM69.468 225.472c-.819-1.151-1.317-2.435-1.436-3.877-.119-1.443.136-2.901.792-4.344.656-1.442 1.56-2.616 2.741-3.493 1.181-.877 2.463-1.376 3.874-1.497a8.278 8.278 0 0 1 4.193.73c1.383.626 2.499 1.501 3.318 2.653.847 1.152 1.316 2.435 1.434 3.906.12 1.443-.136 2.901-.792 4.343-.656 1.443-1.56 2.617-2.74 3.465-1.18.849-2.461 1.348-3.873 1.497a8.277 8.277 0 0 1-4.193-.73c-1.383-.626-2.5-1.501-3.318-2.653Zm7.076.376c.836-.084 1.595-.431 2.305-.979.71-.579 1.254-1.335 1.721-2.324.439-.991.645-1.903.593-2.826-.025-.892-.282-1.707-.773-2.387-.463-.678-1.16-1.221-2.007-1.626-.876-.377-1.702-.551-2.539-.439-.835.084-1.594.43-2.305 1.008-.71.578-1.255 1.334-1.722 2.324-.438.99-.644 1.903-.592 2.825.053.894.282 1.678.773 2.387.492.68 1.16 1.222 2.007 1.627.846.405 1.733.495 2.54.41ZM54.49 217.53l5.65-7.643c.756-1.036 1.105-1.944 1.022-2.809-.083-.867-.545-1.575-1.383-2.209-.838-.606-1.662-.838-2.5-.667-.84.171-1.608.775-2.364 1.811l-5.622 7.645-2.57-1.907 5.622-7.674c.877-1.204 1.856-2.059 2.937-2.566 1.052-.507 2.149-.668 3.233-.485 1.084.184 2.129.653 3.135 1.381 1.565 1.151 2.462 2.536 2.716 4.185.256 1.619-.296 3.353-1.626 5.174l-5.623 7.673-2.628-1.909ZM45.4 187.716l-2.07 7.056.967 1.042 4.636-4.286 2.18 2.38-11.916 10.98-4.167-4.554c-1.269-1.399-1.908-2.745-1.887-4.095.021-1.352.553-2.54 1.653-3.564.892-.829 1.885-1.282 2.948-1.33 1.064-.046 2.143.281 3.206 1.039l2.023-7.374 2.427 2.706Zm-2.767 9.619-1.793-1.964c-1.242-1.368-2.471-1.5-3.69-.365-.565.525-.874 1.118-.896 1.721-.023.632.296 1.305.931 1.99l1.794 1.964 3.654-3.346ZM30.429 170.226l-2.52-4.81 2.195-1.156 4.022 7.683-14.345 7.553-1.501-2.873 12.149-6.397ZM21.497 150.138l1.953 6.199 3.44.097 1.029 3.26-17.078-.86-1.104-3.52 13.478-10.519 1.028 3.258-2.746 2.085Zm-2.097 1.591-5.787 4.36 7.226.209-1.44-4.569ZM4.848 129.911l2.537-.309.525 4.449 13.522-1.602.37 3.205-13.522 1.603.525 4.419-2.566.308-1.391-12.073ZM7.409 118.07l4.183.211.27-5.742 2.464.12-.27 5.742 4.356.217.324-6.43 2.578.124-.471 9.675-16.16-.825.472-9.675 2.55.123-.296 6.46ZM22.415 94.953a4.536 4.536 0 0 1 1.241 2.145c.226.871.217 1.906-.025 3.019-.242 1.113-.651 2.076-1.255 2.887a5.188 5.188 0 0 1-2.103 1.764c-.847.371-1.74.482-2.712.36l.756-3.366a2.505 2.505 0 0 0 1.767-.424c.53-.354.865-.888 1.036-1.63.139-.656.073-1.205-.199-1.618-.27-.441-.691-.715-1.233-.822-.484-.104-.916-.062-1.326.153-.381.216-.737.52-1.01.912-.301.391-.636.925-1.065 1.657-.55.901-1.038 1.659-1.518 2.217a4.37 4.37 0 0 1-1.74 1.287c-.701.32-1.564.345-2.532.137-1.366-.309-2.316-1.034-2.876-2.176-.561-1.143-.682-2.528-.306-4.153.378-1.683 1.084-2.923 2.09-3.748 1.035-.825 2.224-1.155 3.596-.99l-.758 3.424c-.602-.022-1.094.103-1.565.402-.441.3-.747.807-.886 1.463-.136.57-.07 1.09.144 1.53.214.439.634.713 1.204.821.456.103.888.061 1.24-.156.353-.217.707-.492.98-.884.273-.393.637-.926 1.036-1.602.58-.927 1.095-1.685 1.546-2.243.452-.559 1.042-.997 1.771-1.316.73-.318 1.592-.344 2.618-.133.797.173 1.472.543 2.084 1.083ZM15.937 72.138l2.375.979-1.703 4.136L29.19 82.49l-1.23 3.004-12.581-5.238-1.702 4.108-2.375-.98 4.635-11.246ZM40.07 38.169l9.66 13.614-2.609 3.01-10.852-5.404 6.893 10.003-2.609 3.01-14.848-7.592 2.28-2.649 11.105 6.334-7.386-10.654 2.31-2.705 11.614 5.777-7.866-10.097 2.308-2.647ZM57.96 25.569a7.764 7.764 0 0 1 4.077.754c1.298.623 2.41 1.584 3.339 2.884.899 1.298 1.451 2.67 1.57 4.141.147 1.444-.076 2.816-.697 4.087-.593 1.273-1.523 2.36-2.76 3.235-1.239.875-2.578 1.372-3.989 1.492a7.763 7.763 0 0 1-4.077-.754c-1.297-.623-2.409-1.613-3.337-2.912-.9-1.299-1.451-2.67-1.57-4.113a7.7 7.7 0 0 1 .696-4.087 8.429 8.429 0 0 1 2.76-3.235c1.237-.846 2.576-1.343 3.988-1.492Zm-3.95 5.923a4.325 4.325 0 0 0-.322 2.49c.14.897.509 1.773 1.108 2.658a6.03 6.03 0 0 0 2.11 1.947 4.412 4.412 0 0 0 2.448.55c.834-.055 1.65-.37 2.416-.917.767-.547 1.336-1.188 1.68-1.952.344-.764.46-1.593.322-2.49-.14-.897-.51-1.773-1.108-2.658a6.034 6.034 0 0 0-2.11-1.947 4.413 4.413 0 0 0-2.448-.55c-.835.055-1.65.37-2.417.917-.766.547-1.335 1.188-1.68 1.952ZM83.65 29.535l-5.985-4.305-1.312.556 2.513 5.787-2.976 1.3-6.427-14.847 5.66-2.466c1.721-.742 3.22-.888 4.494-.439 1.275.45 2.217 1.376 2.798 2.75.475 1.138.579 2.206.283 3.23-.296 1.025-.99 1.92-2.051 2.686l6.27 4.344-3.268 1.404Zm-8.17-5.765 2.45-1.06c1.693-.744 2.222-1.846 1.56-3.366-.317-.73-.76-1.178-1.355-1.401-.594-.224-1.315-.135-2.19.235l-2.45 1.06 1.985 4.532ZM97.24 16.776l8.484 6.554-3.821.866-7.474-5.941 1.627 7.25-3.156.718-3.549-15.834 3.156-.718 1.603 7.105 4.273-8.442 3.793-.867-4.937 9.31Z" fill="#242F65"/><path d="m124.407 4.806 2.478 5.958 6.324 1.326-4.893 4.22.683 6.41-5.504-3.338-5.895 2.63 1.494-6.272-4.33-4.79 6.422-.54 3.221-5.604Z" fill="#F3764F"/><path d="M120.999 145.433V97.001m-11 38.717 11 11.282 11-11.282h-22Z" stroke="#242F65" stroke-width="1.5" stroke-linecap="round" stroke-linejoin="round"/></svg>