<svg width="176" height="41" fill="none" xmlns="http://www.w3.org/2000/svg"><g clip-path="url(#a)"><path d="M62.529 34.407c-3.824 0-6.673-.95-8.547-2.849-1.875-1.9-2.812-4.724-2.812-8.473V7.915h5.772v15.207c0 2.097.444 3.688 1.332 4.773.912 1.085 2.33 1.628 4.255 1.628 1.874 0 3.268-.543 4.18-1.628.938-1.085 1.407-2.676 1.407-4.773V7.915h5.698v15.17c0 3.75-.95 6.574-2.85 8.473-1.874 1.9-4.686 2.849-8.435 2.849ZM78.923 34V7.915h5.772V34h-5.772Zm22.268.407c-3.823 0-6.672-.95-8.547-2.849-1.875-1.9-2.812-4.724-2.812-8.473V7.915h5.772v15.207c0 2.097.444 3.688 1.332 4.773.912 1.085 2.33 1.628 4.255 1.628 1.875 0 3.268-.543 4.181-1.628.937-1.085 1.406-2.676 1.406-4.773V7.915h5.698v15.17c0 3.75-.95 6.574-2.849 8.473-1.875 1.9-4.687 2.849-8.436 2.849ZM114.002 34l10.915-14.504v2.553L114.298 7.915h6.771l7.104 9.953h-1.85l7.141-9.953h6.771l-10.656 14.134v-2.553L140.568 34h-6.808l-7.437-10.323h1.887L120.736 34h-6.734Zm37.291.407c-3.256 0-5.797-.876-7.622-2.627-1.825-1.751-2.738-4.132-2.738-7.141 0-1.949.382-3.65 1.147-5.106.789-1.455 1.875-2.59 3.256-3.404 1.406-.839 3.046-1.258 4.921-1.258 1.85 0 3.392.395 4.625 1.184 1.258.79 2.195 1.9 2.812 3.33.641 1.406.962 3.046.962 4.921v1.295h-13.135v-2.775h9.065l-.629.518c0-1.554-.321-2.726-.962-3.515-.617-.814-1.517-1.221-2.701-1.221-1.307 0-2.319.481-3.034 1.443-.691.962-1.036 2.343-1.036 4.144v.592c0 1.825.444 3.182 1.332 4.07.913.888 2.22 1.332 3.922 1.332 1.011 0 1.961-.123 2.849-.37a8.986 8.986 0 0 0 2.59-1.258l1.554 3.7c-.937.69-2.023 1.221-3.256 1.591-1.209.37-2.516.555-3.922.555ZM162.164 34V20.199c0-.814-.025-1.64-.074-2.479a27.612 27.612 0 0 0-.185-2.479h5.365l.629 5.476h-.851c.246-1.332.641-2.43 1.184-3.293.567-.863 1.258-1.505 2.072-1.924.838-.42 1.788-.629 2.849-.629.468 0 .838.025 1.11.074.271.025.542.086.814.185l-.037 4.921c-.518-.222-.962-.358-1.332-.407-.346-.074-.79-.111-1.332-.111-1.036 0-1.9.197-2.59.592-.666.395-1.172.974-1.517 1.739-.321.765-.481 1.69-.481 2.775V34h-5.624Z" fill="#242F65"/><path d="M36.788 10.17a8.725 8.725 0 0 1 0 12.338L25.821 33.475a8.725 8.725 0 0 1-12.339-12.338L24.45 10.169a8.725 8.725 0 0 1 12.338 0Z" fill="#7390F9"/><path d="M25.861 33.475a8.725 8.725 0 0 1-12.338 0L2.555 22.508a8.725 8.725 0 0 1 12.339-12.339L25.86 21.137a8.725 8.725 0 0 1 0 12.338Z" fill="#FF774C"/><path d="m26.343 32.96-.522.522a8.697 8.697 0 0 1-6.105 2.555 8.697 8.697 0 0 1-6.193-2.555l-.524-.524a8.725 8.725 0 0 1 .483-11.814l6.19-6.19 6.19 6.19a8.725 8.725 0 0 1 .48 11.816Z" fill="#242F65"/></g><defs><clipPath id="a"><path fill="#fff" d="M0 0h176v41H0z"/></clipPath></defs></svg>