<svg width="26" height="26" fill="none" xmlns="http://www.w3.org/2000/svg"><g clip-path="url(#a)" fill="#FF774C"><path d="M24.95.308a.94.94 0 0 0-1.36-.033l-.726.721a.469.469 0 0 0 0 .663l.665.663a.468.468 0 0 0 .664 0l.707-.703c.357-.357.39-.938.05-1.311ZM21.399 2.46 10.822 13.02a.527.527 0 0 0-.136.23l-.49 1.457a.23.23 0 0 0 .286.285l1.456-.49a.528.528 0 0 0 .23-.135L22.727 3.79a.527.527 0 0 0 0-.742l-.583-.586a.527.527 0 0 0-.745 0Z"/><path d="m21.146 8.291-7.618 7.633a2.568 2.568 0 0 1-1.054.639l-1.619.541a2.244 2.244 0 0 1-2.77-2.77l.541-1.619c.124-.398.342-.76.637-1.054l7.633-7.62a.5.5 0 0 0-.353-.854H3.5a3.5 3.5 0 0 0-3.5 3.5v15a3.5 3.5 0 0 0 3.5 3.5h15a3.5 3.5 0 0 0 3.5-3.5V8.645a.5.5 0 0 0-.854-.353Z"/></g><defs><clipPath id="a"><path fill="#fff" d="M0 0h26v26H0z"/></clipPath></defs></svg>